<svg xmlns="http://www.w3.org/2000/svg" viewBox="0 0 1000 390" role="img" aria-labelledby="t d">
<title id="t">Illustratieve platformomzet en EBITDA 2027–2031</title>
<desc id="d">Groene omzetstaven en gouden EBITDA-lijn. Het zijn scenarioaannames, geen gerealiseerde cijfers.</desc>
<rect width="1000" height="390" rx="20" fill="#eff5f2"/>
<text x="42" y="43" fill="#153b53" font-family="DejaVu Sans, sans-serif" font-size="25" font-weight="700">Platformomzet en EBITDA</text>
<text x="42" y="68" fill="#47677a" font-family="DejaVu Sans, sans-serif" font-size="16">scenario in miljoenen euro · geen gerealiseerde omzet</text>
<path d="M80 292 H960" stroke="#94adaf" stroke-width="2"/>
<polyline points="166,302.0 341,305.0 516,309.4 691,299.3 866,231.6" fill="none" stroke="#d99d40" stroke-width="4"/>
<g font-family="DejaVu Sans, sans-serif"><rect x="130" y="291.2" width="72" height="0.8" rx="6" fill="#30a78e"/><text x="166" y="276.2" fill="#16374e" font-size="17" text-anchor="middle">€0.05m</text><circle cx="166" cy="302.0" r="8" fill="#d99d40"/><text x="166" y="330" fill="#16374e" font-size="18" text-anchor="middle">2027</text><rect x="305" y="289.0" width="72" height="3.0" rx="6" fill="#30a78e"/><text x="341" y="274.0" fill="#16374e" font-size="17" text-anchor="middle">€0.20m</text><circle cx="341" cy="305.0" r="8" fill="#d99d40"/><text x="341" y="330" fill="#16374e" font-size="18" text-anchor="middle">2028</text><rect x="480" y="277.4" width="72" height="14.6" rx="6" fill="#30a78e"/><text x="516" y="262.4" fill="#16374e" font-size="17" text-anchor="middle">€0.97m</text><circle cx="516" cy="309.4" r="8" fill="#d99d40"/><text x="516" y="330" fill="#16374e" font-size="18" text-anchor="middle">2029</text><rect x="655" y="227.8" width="72" height="64.2" rx="6" fill="#30a78e"/><text x="691" y="212.8" fill="#16374e" font-size="17" text-anchor="middle">€4.24m</text><circle cx="691" cy="299.3" r="8" fill="#d99d40"/><text x="691" y="330" fill="#16374e" font-size="18" text-anchor="middle">2030</text><rect x="830" y="52.0" width="72" height="240.0" rx="6" fill="#30a78e"/><text x="866" y="37.0" fill="#16374e" font-size="17" text-anchor="middle">€15.84m</text><circle cx="866" cy="231.6" r="8" fill="#d99d40"/><text x="866" y="330" fill="#16374e" font-size="18" text-anchor="middle">2031</text></g>
<rect x="730" y="26" width="18" height="18" fill="#30a78e"/><text x="756" y="42" fill="#153b53" font-family="DejaVu Sans, sans-serif" font-size="14">omzet</text>
<circle cx="854" cy="35" r="8" fill="#d99d40"/><text x="872" y="42" fill="#153b53" font-family="DejaVu Sans, sans-serif" font-size="14">EBITDA</text>
</svg>